<?xml version="1.0" standalone="no"?>
<!DOCTYPE svg PUBLIC "-//W3C//DTD SVG 20010904//EN"
 "http://www.w3.org/TR/2001/REC-SVG-20010904/DTD/svg10.dtd">
<svg version="1.0" xmlns="http://www.w3.org/2000/svg"
 width="184.000000pt" height="800.000000pt" viewBox="0 0 184.000000 800.000000"
 preserveAspectRatio="xMidYMid meet">

<g transform="translate(0.000000,800.000000) scale(0.100000,-0.100000)"
fill="#000000" stroke="none">
<path d="M0 4000 l0 -4000 920 0 920 0 0 4000 0 4000 -920 0 -920 0 0 -4000z
m904 3459 c-4 -65 -3 -110 2 -106 5 3 9 25 8 49 0 23 5 46 10 50 7 5 6 8 -2 8
-7 0 -10 5 -7 10 17 27 22 -3 23 -147 1 -87 5 -170 8 -184 3 -17 -1 -32 -11
-43 -18 -18 -35 -13 -35 10 0 8 -4 14 -8 14 -14 0 -32 -24 -32 -43 0 -10 -4
-15 -10 -12 -17 10 -11 44 10 65 12 12 25 18 30 15 9 -6 11 0 13 43 1 9 6 21
12 25 7 6 5 10 -4 14 -11 5 -11 7 0 14 11 7 10 9 -3 9 -10 0 -18 5 -18 10 0 6
8 11 18 11 15 1 15 2 1 6 -15 3 -17 23 -18 139 -2 124 1 154 15 154 3 0 2 -50
-2 -111z m-21 -292 c-12 -7 -34 -28 -48 -47 -14 -18 -25 -27 -25 -19 1 27 56
78 85 78 6 0 0 -5 -12 -12z m144 -129 c-3 -7 -5 -2 -5 12 0 14 2 19 5 13 2 -7
2 -19 0 -25z m0 -85 c-3 -10 -5 -2 -5 17 0 19 2 27 5 18 2 -10 2 -26 0 -35z
m3 -134 c0 -53 -3 -64 -28 -87 -15 -15 -36 -32 -46 -37 -17 -10 -19 -23 -17
-145 1 -74 3 -148 5 -165 7 -56 -28 -103 -41 -55 -3 11 -9 20 -14 20 -12 0
-39 -42 -33 -52 3 -4 1 -8 -5 -8 -15 0 -19 23 -8 45 13 26 28 36 47 30 12 -4
16 5 18 38 1 23 4 56 6 72 2 17 -1 35 -6 42 -6 7 -5 14 2 18 8 5 8 11 -1 21
-7 9 -8 14 -1 14 10 0 8 36 -3 68 -2 6 1 12 8 13 9 0 8 2 -1 6 -9 3 -10 9 -3
17 6 7 6 17 0 26 -7 12 -11 12 -17 3 -6 -10 -12 -10 -28 2 -10 8 -14 15 -9 14
35 -5 42 2 41 37 -1 22 4 39 12 41 7 3 12 -4 12 -19 0 -13 6 -33 14 -43 13
-18 15 -18 50 17 31 31 36 42 36 82 0 25 2 46 5 46 3 0 5 -27 5 -61z m-50 -59
c-6 -11 -18 -20 -28 -20 -13 0 -12 4 8 20 31 25 33 25 20 0z m-110 -380 c-27
-21 -40 -25 -40 -12 0 10 53 42 60 36 2 -3 -6 -14 -20 -24z m157 -102 c-3 -7
-5 -2 -5 12 0 14 2 19 5 13 2 -7 2 -19 0 -25z m3 -105 c0 -47 -3 -83 -7 -80
-3 4 -6 39 -5 79 0 87 1 88 7 88 3 0 5 -39 5 -87z m-183 -105 c-3 -8 -6 -5 -6
6 -1 11 2 17 5 13 3 -3 4 -12 1 -19z m169 -94 c-9 -13 -30 -31 -47 -39 l-30
-16 2 -180 c1 -118 -1 -183 -9 -191 -22 -22 -30 3 -25 75 11 144 5 357 -8 335
-5 -8 -7 3 -6 27 1 28 7 41 19 43 13 2 17 -5 20 -34 4 -44 17 -52 43 -25 41
41 44 46 47 84 1 12 3 5 5 -16 3 -24 -2 -48 -11 -63z m-51 -3 c-3 -6 -11 -8
-17 -5 -6 4 -5 9 3 15 16 10 23 4 14 -10z m-75 -41 c0 -5 -7 -7 -15 -4 -8 4
-15 8 -15 10 0 2 7 4 15 4 8 0 15 -4 15 -10z m0 -310 c0 -5 -6 -10 -12 -11
-10 0 -10 -2 0 -6 17 -7 15 -24 -5 -38 -14 -10 -17 -34 -17 -163 -1 -88 -5
-148 -10 -144 -5 3 -6 -2 -3 -12 4 -10 3 -15 -3 -11 -13 8 -9 228 4 237 7 5 5
8 -4 8 -13 0 -13 1 0 10 13 9 13 10 0 10 -13 0 -13 1 0 10 10 6 11 10 3 10
-18 0 -16 31 3 58 10 15 11 22 3 22 -8 0 -8 4 1 15 14 17 40 20 40 5z m106
-15 c31 -29 20 -34 -13 -6 -21 18 -29 31 -19 31 3 0 17 -11 32 -25z m16 -405
c-10 -14 -31 -31 -45 -38 l-27 -13 0 -139 0 -138 34 -21 c35 -22 50 -46 40
-62 -3 -5 0 -9 5 -9 7 0 11 -56 11 -167 l0 -167 -45 -42 -45 -41 0 -132 0
-132 29 -17 c55 -31 61 -54 61 -236 0 -183 -5 -203 -61 -232 l-29 -15 0 -140
c0 -138 0 -140 24 -149 13 -4 33 -21 45 -36 20 -25 21 -38 21 -198 0 -188 -4
-202 -61 -231 l-29 -16 0 -139 0 -139 29 -16 c57 -29 61 -43 61 -231 0 -170 0
-173 -25 -203 -14 -16 -35 -33 -45 -36 -19 -6 -20 -16 -20 -142 l0 -136 45
-41 45 -42 0 -176 c0 -162 -2 -177 -21 -202 -29 -37 -45 -32 -20 7 17 29 20
49 20 186 0 116 -4 161 -15 182 -8 16 -16 29 -18 29 -3 0 -11 3 -20 6 -12 5
-16 0 -16 -19 0 -24 -18 -49 -21 -30 -3 19 -8 148 -9 259 -1 67 -6 140 -10
163 -5 29 -4 44 6 52 17 14 34 3 34 -22 0 -11 7 -19 17 -19 14 0 14 -2 -2 -20
-27 -30 -14 -32 20 -2 l30 25 0 174 0 173 -26 24 c-30 27 -39 25 -39 -11 0
-13 -6 -23 -14 -23 -11 0 -14 42 -18 223 -3 122 -7 228 -9 236 -2 8 3 16 12
18 21 5 55 -57 38 -68 -8 -5 -8 -8 0 -13 6 -4 11 -2 11 3 0 6 7 11 15 11 20 0
28 53 27 199 0 179 0 176 -26 204 -27 29 -36 26 -36 -15 0 -18 -5 -28 -15 -28
-13 0 -15 28 -15 193 0 154 -3 197 -15 213 -8 10 -15 15 -15 10 0 -5 -11 1
-25 14 -25 23 -25 25 -25 188 0 140 3 168 17 184 15 17 43 25 43 12 0 -3 -7
-12 -15 -20 -8 -9 -15 -30 -15 -47 0 -18 -2 -91 -3 -164 -2 -129 -2 -132 21
-143 21 -9 23 -8 20 12 -2 17 3 24 20 26 16 3 22 -2 22 -16 0 -11 6 -23 13
-25 9 -4 8 -8 -3 -16 -8 -5 -11 -13 -8 -17 11 -10 58 47 58 70 6 342 8 319
-18 344 -28 27 -46 29 -39 2 5 -20 -17 -59 -28 -48 -4 3 -6 94 -5 201 0 166
-2 197 -15 211 -9 9 -12 16 -6 16 6 0 11 11 11 23 0 13 3 26 6 30 11 11 34 -5
34 -24 0 -11 7 -19 18 -19 16 -1 16 -2 -1 -14 -10 -8 -14 -17 -9 -20 10 -6 34
17 49 49 12 24 15 357 3 350 -4 -3 -10 5 -13 16 -3 12 -10 18 -16 14 -6 -3
-11 -1 -11 4 0 6 -5 11 -11 11 -7 0 -9 -9 -5 -23 6 -27 -15 -64 -31 -54 -6 4
-9 24 -8 44 8 85 5 341 -4 378 -8 32 -7 43 5 55 13 13 16 13 24 0 5 -8 8 -21
5 -27 -3 -8 4 -13 18 -13 21 -1 21 -1 3 -15 -11 -8 -17 -17 -14 -20 3 -3 19
10 37 30 29 34 31 40 32 123 2 255 13 299 16 72 3 -157 2 -177 -15 -200z
m-128 4 c3 -8 2 -12 -4 -9 -6 3 -10 10 -10 16 0 14 7 11 14 -7z m6 -353 c0 -5
-12 -11 -27 -14 -26 -5 -26 -4 -8 9 22 16 35 18 35 5z m0 -32 c0 -7 -7 -17
-15 -23 -11 -9 -15 -45 -17 -174 -2 -101 1 -164 7 -166 6 -3 3 -5 -6 -5 -26
-1 -29 20 -28 185 0 144 2 156 21 174 24 22 38 26 38 9z m0 -737 c0 -4 -17
-15 -37 -25 l-38 -16 28 24 c28 25 47 32 47 17z m-4 -791 c-1 -15 -7 -36 -15
-45 -20 -24 -16 -324 5 -347 18 -20 18 -29 0 -29 -8 0 -22 10 -30 22 -23 33
-23 339 0 362 8 9 21 16 27 16 7 0 6 4 -3 10 -9 5 -19 5 -27 -2 -8 -6 -16 -8
-19 -5 -5 4 52 47 62 47 1 0 1 -13 0 -29z m1 -781 c0 -16 -6 -31 -14 -34 -20
-8 -19 -329 2 -350 16 -15 20 -36 8 -36 -4 0 -17 10 -30 22 -22 21 -23 27 -23
185 0 150 2 165 20 183 27 27 25 31 -7 20 l-28 -10 28 25 c36 32 44 32 44 -5z
m3 -749 c0 -11 -45 -41 -62 -41 -7 0 0 12 15 25 29 26 47 32 47 16z m-13 -59
c-14 -16 -17 -44 -17 -180 0 -153 1 -162 21 -172 18 -10 20 -9 17 12 -2 17 2
24 20 26 17 3 22 -2 22 -17 0 -12 5 -21 10 -21 6 0 10 -7 10 -15 0 -8 -4 -15
-10 -15 -6 0 -10 -60 -10 -160 l0 -159 29 -16 c57 -29 61 -43 61 -231 0 -159
-2 -174 -21 -195 -17 -20 -19 -21 -10 -3 5 11 10 76 12 145 3 197 2 204 -27
238 -24 29 -46 41 -43 24 1 -5 0 -19 -1 -33 l-2 -25 -12 29 c-9 19 -13 80 -14
178 -1 155 -7 212 -23 203 -5 -4 -20 5 -33 18 -24 24 -24 29 -25 188 -1 137 2
166 16 181 9 10 23 18 31 18 13 0 13 -3 -1 -18z m13 -727 c-7 -8 -19 -15 -28
-15 -8 0 -25 -8 -36 -17 -20 -18 -20 -17 -6 2 22 30 43 44 64 45 15 0 16 -3 6
-15z m-28 -214 l-3 -170 25 -16 c18 -12 35 -15 58 -10 29 7 31 6 19 -9 -14
-17 -76 -22 -99 -8 -22 15 -29 65 -27 213 2 137 6 169 23 169 4 0 6 -76 4
-169z"/>
<path d="M900 7326 c0 -8 4 -17 8 -20 4 -2 8 4 8 15 0 10 -4 19 -8 19 -4 0 -8
-6 -8 -14z"/>
<path d="M910 6726 c0 -9 5 -16 10 -16 6 0 10 4 10 9 0 6 -4 13 -10 16 -5 3
-10 -1 -10 -9z"/>
</g>
</svg>
